<svg xmlns="http://www.w3.org/2000/svg"  width="40" height="30" data-name="Layer 1" viewBox="0 0 100 125" ><path d="M88.5,57.07a13.061,13.061,0,0,0-4.658-1.614v-10.9a13.127,13.127,0,1,0-12.194-21.13L62.2,17.963a13.124,13.124,0,1,0-24.389,0l-9.452,5.457A13.12,13.12,0,0,0,6.7,25h0a13.138,13.138,0,0,0,9.461,19.551v10.9A13.135,13.135,0,0,0,6.7,75h0A13.119,13.119,0,0,0,27.1,77.95a1.343,1.343,0,0,0,.146-.136,13.056,13.056,0,0,0,1.107-1.238l9.452,5.457A13.088,13.088,0,0,0,40.764,96.19a1.426,1.426,0,0,0,.235.224,13.091,13.091,0,0,0,18.011-.007,1.373,1.373,0,0,0,.217-.207A13.092,13.092,0,0,0,62.2,82.037l9.452-5.459a13.138,13.138,0,0,0,10.271,4.991,13.183,13.183,0,0,0,3.417-.453A13.127,13.127,0,0,0,88.5,57.07ZM87.133,40.555A10.4,10.4,0,0,1,75.223,39.5a6.858,6.858,0,0,1,13.427-.008A10.533,10.533,0,0,1,87.133,40.555ZM79.518,28.873A2.42,2.42,0,1,1,81.937,31.3,2.422,2.422,0,0,1,79.518,28.873Zm-2.776-6.307a10.385,10.385,0,0,1,14.192,3.8h0a10.315,10.315,0,0,1,1.037,7.88,10.434,10.434,0,0,1-1.228,2.832,9.578,9.578,0,0,0-4.832-4.924,5.154,5.154,0,1,0-7.948,0,9.581,9.581,0,0,0-4.828,4.918c-.066-.106-.133-.212-.2-.32A10.4,10.4,0,0,1,76.742,22.566ZM50,2.735a10.382,10.382,0,0,1,8.8,15.9,9.59,9.59,0,0,0-4.826-4.917,5.158,5.158,0,1,0-7.952,0A9.59,9.59,0,0,0,41.2,18.632,10.381,10.381,0,0,1,50,2.735Zm-2.425,7.7A2.422,2.422,0,1,1,50,12.856,2.427,2.427,0,0,1,47.578,10.436ZM50,15.591a6.85,6.85,0,0,1,6.711,5.452,10.358,10.358,0,0,1-13.428,0A6.856,6.856,0,0,1,50,15.591ZM9.066,26.368h0A10.389,10.389,0,0,1,27.06,36.755c-.062.107-.128.211-.193.316a9.592,9.592,0,0,0-4.828-4.914,5.156,5.156,0,1,0-7.95,0A9.576,9.576,0,0,0,9.258,37.08a10.436,10.436,0,0,1-1.229-2.832A10.315,10.315,0,0,1,9.066,26.368Zm6.577,2.505a2.423,2.423,0,1,1,2.42,2.425A2.423,2.423,0,0,1,15.643,28.873ZM11.35,39.488a6.86,6.86,0,0,1,13.431.005,10.4,10.4,0,0,1-11.914,1.062A10.533,10.533,0,0,1,11.35,39.488Zm1.522,19.951a10.387,10.387,0,0,1,13.994,14.51,9.592,9.592,0,0,0-4.827-4.913,5.157,5.157,0,1,0-7.95,0,9.575,9.575,0,0,0-4.828,4.917c-.066-.1-.133-.21-.195-.318A10.409,10.409,0,0,1,12.872,59.439Zm2.771,6.312a2.423,2.423,0,1,1,2.42,2.425A2.422,2.422,0,0,1,15.643,65.751Zm7.615,11.683A10.4,10.4,0,0,1,11.35,76.365a6.861,6.861,0,0,1,13.429,0A10.4,10.4,0,0,1,23.258,77.434ZM43.287,94.8a6.86,6.86,0,0,1,13.426,0,10.362,10.362,0,0,1-13.426,0Zm4.291-10.608A2.422,2.422,0,1,1,50,86.613,2.426,2.426,0,0,1,47.578,84.188Zm11.224,8.2a9.583,9.583,0,0,0-4.826-4.915,5.158,5.158,0,1,0-7.95,0A9.6,9.6,0,0,0,41.2,92.387a10.389,10.389,0,1,1,17.6,0Zm2.122-12.775a13.11,13.11,0,0,0-21.845,0l-9.261-5.346a13.119,13.119,0,0,0-8.357-18.5,13.3,13.3,0,0,0-2.568-.426V44.662a13.278,13.278,0,0,0,2.567-.424,13.033,13.033,0,0,0,5.756-3.269l.012-.011a13.128,13.128,0,0,0,2.589-15.222l9.261-5.346a13.3,13.3,0,0,0,1.708,2.068,1.322,1.322,0,0,0,.192.182,13.085,13.085,0,0,0,18.053-.006,1.366,1.366,0,0,0,.174-.166,13.245,13.245,0,0,0,1.719-2.08l9.26,5.347a13.118,13.118,0,0,0,8.356,18.5,13.278,13.278,0,0,0,2.567.424V55.346A13.113,13.113,0,0,0,70.183,74.264Zm23.7-1.138a10.364,10.364,0,0,1-9.4-2.11,6.858,6.858,0,0,1,13.427.01A10.347,10.347,0,0,1,84.627,78.474ZM79.518,65.751a2.42,2.42,0,1,1,2.419,2.425A2.422,2.422,0,0,1,79.518,65.751Zm11.416,7.882c-.062.108-.128.213-.194.319a9.579,9.579,0,0,0-4.829-4.918,5.154,5.154,0,1,0-7.948,0,9.579,9.579,0,0,0-4.828,4.917,10.388,10.388,0,1,1,17.8-.318ZM50,30.971A19.029,19.029,0,1,0,69.026,50,19.05,19.05,0,0,0,50,30.971Zm4.44,34.7a16.16,16.16,0,0,1-3.073.559v-9.8h7.109a27.193,27.193,0,0,1-4.032,9.238Zm-8.974-.026a27.039,27.039,0,0,1-3.941-9.219h7.107v9.8A16.149,16.149,0,0,1,45.469,65.647ZM33.709,50a16.3,16.3,0,0,1,.427-3.693H38.59a30.544,30.544,0,0,0-.376,5.077c.009.775.053,1.544.124,2.309h-4.2A16.3,16.3,0,0,1,33.709,50Zm7.653-3.693h7.273v7.386H41.092A27.379,27.379,0,0,1,41.362,46.307Zm7.273-12.539v9.8H41.947a41.806,41.806,0,0,1,3.735-9.28A16.262,16.262,0,0,1,48.635,33.768Zm5.857.573a41.421,41.421,0,0,1,3.658,9.231H51.37v-9.8A16.17,16.17,0,0,1,54.492,34.341ZM51.37,53.693V46.307h7.346a27.286,27.286,0,0,1,.219,7.386Zm10.116-7.386h4.378a16.183,16.183,0,0,1,0,7.386H61.688c.083-.827.134-1.659.144-2.5A30.61,30.61,0,0,0,61.486,46.307Zm3.482-2.735H60.962a41.249,41.249,0,0,0-2.6-7.548A16.4,16.4,0,0,1,64.968,43.572ZM41.818,35.92a41.624,41.624,0,0,0-2.691,7.652H35.033A16.4,16.4,0,0,1,41.818,35.92ZM35.033,56.428h3.7A28.765,28.765,0,0,0,41.2,63.7,16.388,16.388,0,0,1,35.033,56.428Zm23.694,7.321a28.888,28.888,0,0,0,2.553-7.321h3.687A16.384,16.384,0,0,1,58.727,63.749Z"/><text x="0" y="115" fill="#000000" font-size="5px" font-weight="bold" font-family="'Helvetica Neue', Helvetica, Arial-Unicode, Arial, Sans-serif"></text><text x="0" y="120" fill="#000000" font-size="5px" font-weight="bold" font-family="'Helvetica Neue', Helvetica, Arial-Unicode, Arial, Sans-serif"></text></svg>