<!-- <svg xmlns="http://www.w3.org/2000/svg" viewBox="0 0 100 125" x="0px" y="0px"><g data-name="03"><path d="M77.85,20.713a1.111,1.111,0,0,1,.308.817L75.211,90.221A4.983,4.983,0,0,1,70.222,95h-5.3a1.113,1.113,0,0,1,0-2.226h5.3a2.761,2.761,0,0,0,2.765-2.649l2.9-67.529H23.915l2.9,67.53a2.76,2.76,0,0,0,2.764,2.648h30.1a1.113,1.113,0,1,1,0,2.226h-30.1a4.982,4.982,0,0,1-4.988-4.779L21.641,21.53a1.112,1.112,0,0,1,1.112-1.16H77.046A1.113,1.113,0,0,1,77.85,20.713Zm2-7.718v4.1A1.113,1.113,0,0,1,78.741,18.2H34.875a1.113,1.113,0,1,1,0-2.226H77.628v-1.87H22.372v1.87H28.6a1.113,1.113,0,0,1,0,2.226H21.259a1.113,1.113,0,0,1-1.113-1.113V13a1.113,1.113,0,0,1,1.113-1.113H39.011V6.113A1.113,1.113,0,0,1,40.124,5H59.675a1.113,1.113,0,0,1,1.113,1.113v5.769H78.741A1.113,1.113,0,0,1,79.854,13ZM41.237,11.882H58.562V7.226H41.237Zm7.55,22.505v46.6a1.113,1.113,0,0,0,2.226,0V34.387a1.113,1.113,0,0,0-2.226,0Zm13.641-1.112a1.112,1.112,0,0,0-1.143,1.081L59.978,80.951A1.113,1.113,0,0,0,61.06,82.1h.032A1.113,1.113,0,0,0,62.2,81.014l1.306-46.6A1.113,1.113,0,0,0,62.428,33.275Zm-25.057,0a1.111,1.111,0,0,0-1.081,1.143l1.306,46.6A1.112,1.112,0,0,0,38.708,82.1h.032a1.113,1.113,0,0,0,1.081-1.144L38.515,34.356A1.114,1.114,0,0,0,37.371,33.275Z"/></g></svg> -->

<svg
  xmlns="http://www.w3.org/2000/svg"
  viewBox="0 0 100 125"
  x="0px"
  y="0px"
  width="27"
  height="27"
>
  <g data-name="03">
    <path d="M77.85,20.713a1.111,1.111,0,0,1,.308.817L75.211,90.221A4.983,4.983,0,0,1,70.222,95h-5.3a1.113,1.113,0,0,1,0-2.226h5.3a2.761,2.761,0,0,0,2.765-2.649l2.9-67.529H23.915l2.9,67.53a2.76,2.76,0,0,0,2.764,2.648h30.1a1.113,1.113,0,1,1,0,2.226h-30.1a4.982,4.982,0,0,1-4.988-4.779L21.641,21.53a1.112,1.112,0,0,1,1.112-1.16H77.046A1.113,1.113,0,0,1,77.85,20.713Zm2-7.718v4.1A1.113,1.113,0,0,1,78.741,18.2H34.875a1.113,1.113,0,1,1,0-2.226H77.628v-1.87H22.372v1.87H28.6a1.113,1.113,0,0,1,0,2.226H21.259a1.113,1.113,0,0,1-1.113-1.113V13a1.113,1.113,0,0,1,1.113-1.113H39.011V6.113A1.113,1.113,0,0,1,40.124,5H59.675a1.113,1.113,0,0,1,1.113,1.113v5.769H78.741A1.113,1.113,0,0,1,79.854,13ZM41.237,11.882H58.562V7.226H41.237Zm7.55,22.505v46.6a1.113,1.113,0,0,0,2.226,0V34.387a1.113,1.113,0,0,0-2.226,0Zm13.641-1.112a1.112,1.112,0,0,0-1.143,1.081L59.978,80.951A1.113,1.113,0,0,0,61.06,82.1h.032A1.113,1.113,0,0,0,62.2,81.014l1.306-46.6A1.113,1.113,0,0,0,62.428,33.275Zm-25.057,0a1.111,1.111,0,0,0-1.081,1.143l1.306,46.6A1.112,1.112,0,0,0,38.708,82.1h.032a1.113,1.113,0,0,0,1.081-1.144L38.515,34.356A1.114,1.114,0,0,0,37.371,33.275Z"
    />
  </g>
</svg>
